<svg width="51" height="58" viewBox="0 0 51 58" fill="none" xmlns="http://www.w3.org/2000/svg">
<path d="M30.6189 0.556749C26.0598 -0.664877 21.234 1.27212 18.7728 5.3059C17.5732 4.32191 16.2205 3.60055 14.7266 3.20024C11.994 2.46805 9.08245 2.85136 6.63248 4.26585C4.18252 5.68033 2.3948 8.01013 1.66261 10.7427C0.406472 15.4307 2.50307 20.382 6.719 22.7816L1.79799 41.1471L35.2834 50.1195L40.2044 31.754C45.0553 31.7839 49.3467 28.5442 50.6028 23.8562C51.335 21.1236 50.9517 18.2121 49.5372 15.7621C48.1228 13.3122 45.793 11.5245 43.0604 10.7923C41.5664 10.392 40.0342 10.3403 38.5034 10.5927C38.3888 5.86875 35.1781 1.77838 30.6189 0.556749ZM23.1194 23.3939L25.6952 24.0841L20.8639 42.1147L18.2881 41.4245L23.1194 23.3939ZM14.0116 26.4749L16.5874 27.1651L13.1365 40.0441L10.5607 39.3539L14.0116 26.4749ZM29.4664 30.616L32.0422 31.3062L28.5913 44.1852L26.0155 43.495L29.4664 30.616ZM1.1078 43.7229L0.41762 46.2987C0.234572 46.9818 0.330399 47.7097 0.684021 48.3222C1.03764 48.9347 1.62009 49.3816 2.30324 49.5647L30.6371 57.1567C31.3202 57.3398 32.0481 57.2439 32.6606 56.8903C33.2731 56.5367 33.72 55.9542 33.903 55.2711L34.5932 52.6953L1.1078 43.7229Z" fill="black"/>
</svg>
